<svg width="420" height="150" viewBox="0 0 420 150" fill="none" xmlns="http://www.w3.org/2000/svg" role="img" aria-labelledby="title desc">
  <title id="title">Thread</title>
  <desc id="desc">Thread's continuous ribbon T mark next to the Thread wordmark.</desc>
  <path d="M78 19H121C136 19 145 30 145 42.5C145 55 136 66 121 66H115C98 66 87 58 76 49C65 40 53 19 41 19H29C18 19 9 30 9 42.5C9 55 18 66 29 66H48C79 66 96 79 96 95V114C96 127 86 135 75 135C64 135 55 127 55 114V82" fill="none" stroke="#172A2D" stroke-width="5.8" stroke-linecap="round" stroke-linejoin="round"/>
  <text x="174" y="93" fill="#172A2D" font-family="Newsreader, Georgia, serif" font-size="72" font-weight="600" letter-spacing="-2.5">thread</text>
</svg>
